# xmcd
# 
# Track frame offsets:
#     150
#     19749
#     31231
#     42640
#     52244
#     64615
#     76981
#     87783
#     101526
#     115304
#     127730
#     139927
#     152761
#     165657
#     176893
#     189124
#     201172
#     214068
# 
# Disc length: 3011
# 
# Revision: 4
# Processed by: cddbd v1.5.2PL0 Copyright (c) Steve Scherf et al.
# Submitted via: fre:ac v1.0.17
# 
DISCID=f40bc112
DTITLE=Various Artist - The Blues Masters
DYEAR=2006
DGENRE=Blues
TTITLE0=John Lee Hooker - Shake It Baby
TTITLE1=T-Bone Walker - Cold Hearted Woman
TTITLE2=Jimmy Reed - Buy Me A Hound Dog
TTITLE3=Sonny Boy Williamson - Trying to Get Back On My Feet
TTITLE4=Howlin' Wolf - Spoonful
TTITLE5=Elmore James - The Sun Is Shining
TTITLE6=Otis Rush - I'm Satisfied
TTITLE7=Slim Harpo - I'm A King Bee
TTITLE8=Little Walter - Confessin' The Blues
TTITLE9=The Willie Dixon Orchestra - Wang Dang Doodle
TTITLE10=Jimmy Witherspoon - Ain't Nobody's Business
TTITLE11=Big Mama Thornton - Hound Dog
TTITLE12=Muddy Waters - I Just Want To Make Love To You
TTITLE13=John Lee Hooker - Baby, Please Don't Go
TTITLE14=Muddy Waters - I Can't Be Satisfied
TTITLE15=Little Walter - Worried Life
TTITLE16=B.B. King - Think It Over
TTITLE17=Sonny Boy Williamson - Bye Bye Bird
EXTD=
EXTT0=Recorded November 23, 1965, New York City
EXTT1=Recorded June 28 and July 1, 1968, Los Angeles
EXTT2=Recorded August 1964, Chicago
EXTT3=Recorded September 3, 1963, Chicago
EXTT4=Recorded June 1960, Chicago
EXTT5=Recorded April 1960, Chicago
EXTT6=Recorded January 30, 1960, Chicago
EXTT7=Recorded 1957, Louisiana
EXTT8=Recorded January 1958, Chicago
EXTT9=Recorded February 17, 1954, Chicago
EXTT10=Recorded August 15, 1956, Chicago
EXTT11=Recorded August 13, 1952, Los Angeles
EXTT12=Recorded April 13, 1954, Chicago
EXTT13=Recorded 1952, Detroit
EXTT14=Recorded April 1948, Chicago
EXTT15=Recorded February 25, 1959, Chicago
EXTT16=Recorded November 17, 1966, Chicago
EXTT17=Recorded January 11, 1963, Chicago
PLAYORDER=
